<?xml version="1.0" encoding="UTF-8"?>
<svg xmlns="http://www.w3.org/2000/svg" xmlns:xlink="http://www.w3.org/1999/xlink" xmlns:svgjs="http://svgjs.com/svgjs" version="1.1" width="512" height="512" x="0" y="0" viewBox="0 0 152 152" style="enable-background:new 0 0 512 512" xml:space="preserve" class="">
  <g>
    <linearGradient xmlns="http://www.w3.org/2000/svg" id="linear-gradient" gradientUnits="userSpaceOnUse" x1="51.16" x2="85.21" y1="47.25" y2="81.29">
      <stop stop-opacity="1" stop-color="#152028" offset="0"/>
      <stop stop-opacity="1" stop-color="#000000" offset="0"/>
      <stop stop-opacity="1" stop-color="#160e2e" offset="1"/>
    </linearGradient>
    <linearGradient xmlns="http://www.w3.org/2000/svg" xmlns:xlink="http://www.w3.org/1999/xlink" id="linear-gradient-2" x1="56.2" x2="148.49" xlink:href="#linear-gradient" y1="56.2" y2="148.49"/>
    <g xmlns="http://www.w3.org/2000/svg" id="Layer_2" data-name="Layer 2">
      <g id="Color">
        <g id="_13.M" data-name="13.M">
          <rect id="Background" fill="#160e2e" height="152" rx="12" width="152" data-original="#2196f3" style="" class=""/>
          <g id="Shadow">
            <path d="m76 90.5-16.54-51.5s18.38 15.83 25.42 23.74z" fill="url(#linear-gradient)" data-original="url(#linear-gradient)" style="" class=""/>
            <path d="m152 75v65a12 12 0 0 1 -12 12h-65l-39-38.95h17.86v-17.3l-1.73-35.48 18 52.78h11.77l17.92-52.72-1.73 35.42v17.3h17.91v-74.05z" fill="url(#linear-gradient-2)" data-original="url(#linear-gradient-2)" style=""/>
          </g>
          <path id="Icon" d="m59.46 39 16.54 51.5 16.49-51.5h23.51v74.1h-17.91v-17.35l1.73-35.42-17.92 52.72h-11.8l-18-52.78 1.73 35.48v17.3h-17.83v-74.05z" fill="#ffffff" data-original="#ffffff" style="" class=""/>
        </g>
      </g>
    </g>
  </g>
</svg>
